<svg width="360" height="148" viewBox="0 0 360 148" fill="none" xmlns="http://www.w3.org/2000/svg">
<rect x="28.0391" y="63.7201" width="306.477" height="13.6298" transform="rotate(-12 28.0391 63.7201)" fill="#030001"/>
<rect x="28.0391" y="79.2971" width="229.601" height="9.25745" transform="rotate(-12 28.0391 79.2971)" fill="#CAF64B"/>
<rect x="28.0391" y="125.622" width="337.41" height="9.25745" transform="rotate(-12 28.0391 125.622)" fill="#CAF64B"/>
<rect x="28.0391" y="138.301" width="268.58" height="9.25745" transform="rotate(-12 28.0391 138.301)" fill="#CAF64B"/>
<rect y="91.7417" width="229.601" height="9.25745" transform="rotate(-12 0 91.7417)" fill="#CAF64B"/>
<rect x="67.7598" y="83.5638" width="229.601" height="25.7892" transform="rotate(-12 67.7598 83.5638)" fill="#CAF64B"/>
<rect x="53.3506" y="100.698" width="229.601" height="13.2007" transform="rotate(-12 53.3506 100.698)" fill="#81DEFF"/>
<rect x="53.3506" y="126.79" width="163.155" height="8.68814" transform="rotate(-12 53.3506 126.79)" fill="#81DEFF"/>
<rect x="12.4609" y="103.424" width="229.601" height="9.43595" transform="rotate(-12 12.4609 103.424)" fill="#030001"/>
</svg>
