<svg width="9" height="16" viewBox="0 0 9 16" fill="none" xmlns="http://www.w3.org/2000/svg">
<path fill-rule="evenodd" clip-rule="evenodd" d="M2.56066 1.00024C1.97487 0.414451 1.02513 0.414451 0.43934 1.00024C-0.146447 1.58602 -0.146447 2.53577 0.43934 3.12156L5.37868 8.0609L0.43934 13.0002C-0.146447 13.586 -0.146447 14.5358 0.43934 15.1216C1.02513 15.7073 1.97487 15.7073 2.56066 15.1216L8.55964 9.12257C8.55998 9.12224 8.56032 9.1219 8.56066 9.12156C8.63388 9.04834 8.69795 8.96943 8.75287 8.88625C9.13729 8.30402 9.07322 7.5128 8.56066 7.00024C8.56042 7 8.56018 6.99976 8.55994 6.99952L2.56066 1.00024Z" fill="black"/>
</svg>
