<svg width="43" height="44" viewBox="0 0 43 44" fill="none" xmlns="http://www.w3.org/2000/svg">
<path d="M6.14286 0C2.75469 0 0 2.81875 0 6.28571V37.7143C0 41.1812 2.75469 44 6.14286 44H15.5683V29.6804H10.5004V22H15.5683V18.6902C15.5683 10.1357 19.35 6.16786 27.5661 6.16786C29.121 6.16786 31.8085 6.48214 32.9123 6.79643V13.75C32.3364 13.6911 31.3286 13.6518 30.0712 13.6518C26.04 13.6518 24.485 15.2134 24.485 19.2696V22H32.5092L31.127 29.6804H24.4754V44H36.8571C40.2453 44 43 41.1812 43 37.7143V6.28571C43 2.81875 40.2453 0 36.8571 0H6.14286Z" fill="white"/>
</svg>
