<svg width="371" height="371" viewBox="0 0 371 371" fill="none" xmlns="http://www.w3.org/2000/svg">
<path d="M174.765 160.158C171.977 159.273 169.123 158.553 166.417 157.466C162.039 155.708 159.205 156.628 157.103 160.906C154.837 165.517 151.475 170.246 159.414 174.136C158.826 174.514 158.238 174.893 157.65 175.271C155.822 174.54 154.048 173.555 152.15 173.159C150.682 172.853 149.06 173.285 147.507 173.389C148.345 174.563 149.012 175.928 150.061 176.867C151.727 178.357 154.195 179.197 155.37 180.95C161.649 190.318 159.444 194.574 148.53 197.391C141.637 199.17 135.081 202.387 128.526 205.301C123.734 207.432 119.378 210.629 114.489 212.431C107.986 214.829 103.746 212.386 102.542 205.523C101.671 200.556 102.043 195.367 101.915 190.275C101.849 187.682 101.903 185.085 101.903 182.522C98.1092 181.905 96.7725 183.138 96.5302 186.344C95.7649 196.474 94.8964 206.599 93.8443 216.703C93.0756 224.085 95.4669 226.98 102.819 226.392C109.365 225.868 115.14 223.874 117.489 216.752C117.765 215.915 118.55 215.247 119.118 214.473C125.962 220.771 127.868 221.119 134.833 217.286C134.466 216.232 134.081 215.126 133.601 213.746C140.166 212.673 145.66 213.979 150.083 218.673C152.904 221.667 155.375 225.008 158.325 227.861C165.94 235.227 173.933 234.815 181.026 226.874C182.551 225.166 183.924 223.323 185.86 220.936C187.244 226.455 185.847 231.005 183.297 234.784C179.918 239.791 176.387 245.211 171.627 248.674C155.656 260.294 148.509 277.371 141.511 294.642C138.739 301.482 136.498 308.538 133.707 316.36C130.497 315.151 127.417 313.992 123.519 312.524C126.019 306.812 128.115 301.522 130.617 296.431C134.247 289.04 138.933 282.077 141.778 274.415C145.48 264.448 148.678 254.124 150.501 243.676C152.299 233.363 145.821 228.071 135.578 230.34C129.137 231.767 122.908 233.643 116.167 231.873C114.304 231.384 111.985 232.416 109.926 232.948C107.218 233.647 104.606 234.756 101.876 235.314C92.5532 237.219 87.8344 233.553 87.9696 224.039C88.0392 219.139 88.7007 214.134 89.9231 209.39C92.4335 199.648 92.6926 189.887 91.6581 179.977C90.608 169.917 92.544 160.973 101.245 154.473C102.569 153.484 103.404 151.583 104.015 149.937C108.426 138.06 112.649 126.113 117.089 114.247C118.855 109.527 118.928 105.692 115.892 100.949C109.353 90.7309 115.509 67.8114 130.839 63.2069C137.284 61.2711 143.034 64.5638 145.422 71.5155C150.632 86.6871 138.522 107.904 125.07 108.002C123.897 108.011 122.136 109.644 121.664 110.903C116.647 124.315 111.821 137.798 106.997 151.281C106.678 152.172 106.426 153.395 106.781 154.174C110.58 162.516 107.158 170.678 106.478 178.943C105.901 185.962 105.537 193.106 106.186 200.092C106.986 208.685 111.537 210.779 119.218 206.773C122.56 205.03 125.678 202.826 128.792 200.68C135 196.401 141.452 193.038 149.344 193.371C150.698 193.428 152.109 192.136 153.494 191.467C152.479 190.108 151.75 188.205 150.396 187.495C146.767 185.593 142.733 184.464 139.114 182.547C133.653 179.655 132.317 176.232 133.598 170.229C134.181 167.497 134.866 164.775 135.231 162.012C136.163 154.962 139.403 149.84 146.061 146.644C149.054 145.207 151.786 142.661 153.845 140.004C155.713 137.594 157.894 136.736 160.108 137.848C161.853 138.724 164.183 141.256 163.977 142.735C162.783 151.308 169.023 154.4 174.69 158.767C174.871 159.6 174.818 159.879 174.765 160.158ZM140.149 94.9678C143.82 88.1114 146.006 80.9554 143.376 73.2487C140.86 65.875 134.182 63.6677 127.679 67.8273C121.015 72.0894 117.647 78.4434 116.372 86.0553C114.949 94.5514 117.761 101.917 123.148 103.936C128.817 106.061 134.589 103.14 140.149 94.9678Z" fill="#373737" fill-opacity="0.24"/>
<path d="M267.141 189.028C269.523 187.561 271.593 186.277 273.663 184.993C273.591 184.505 273.519 184.017 273.447 183.529C270.598 183.88 267.504 183.645 264.955 184.712C260.433 186.605 255.958 188.893 251.981 191.74C246.538 195.636 241.119 195.951 235.221 193.439C234.16 192.987 233.113 192.498 232.037 192.086C226.262 189.877 225.424 190.222 222.733 195.744C222.468 196.286 221.989 196.725 221.124 197.834C213.137 183.423 199.113 182.3 185.281 180.757C185.299 180.258 185.317 179.758 185.334 179.259C189.358 179.259 193.478 178.7 197.389 179.365C208.736 181.294 219.955 183.993 231.319 185.796C235.494 186.458 240.056 186.011 244.224 185.087C251.748 183.42 259.152 181.151 266.515 178.844C269.427 177.932 272.243 176.48 274.829 174.842C277.029 173.447 278.715 171.267 280.843 169.73C284.067 167.402 287.67 166.834 290.815 169.656C293.841 172.372 293.7 176.075 291.579 179.11C289.756 181.717 287.246 184.048 284.587 185.823C279.687 189.095 274.084 191.385 269.434 194.947C257.619 203.997 244.306 207.561 229.686 207.372C225.737 207.322 221.762 207.432 217.836 207.834C211.293 208.503 209.511 210.704 210.154 217.265C210.901 224.896 211.034 232.434 207.659 239.555C206.582 241.826 205.093 243.902 203.131 245.878C206.604 235.815 203.309 226.576 201.058 217.116C200.026 212.78 200.035 207.917 200.795 203.504C201.715 198.158 205.705 195.247 211.84 194.674C211.071 196.72 210.435 198.413 209.547 200.779C211.759 201.217 213.603 201.921 215.431 201.885C223.995 201.719 232.555 201.371 241.115 201.045C248.542 200.762 254.534 196.932 260.521 193.1C262.602 191.769 264.725 190.505 267.141 189.028Z" fill="#373737" fill-opacity="0.24"/>
<path d="M253.153 300.71C246.818 314.562 230.612 319.605 218.82 311.317C217.652 312.85 216.483 314.384 215.326 315.902C210.742 313.756 209.694 310.668 211.526 306.2C216.692 293.6 221.695 280.933 226.924 267.889C224.679 268.463 222.386 269.048 220.007 269.656C218.426 264.587 220.084 261.727 225.129 260.031C233.973 257.058 242.749 254.399 252.111 257.369C258.803 259.492 261.741 263.107 262.023 269.288C262.298 275.313 259.861 279.04 253.625 281.859C250.808 283.133 247.899 284.203 246.052 284.952C248.449 290.114 250.753 295.075 253.113 300.415C253.168 300.795 253.153 300.71 253.153 300.71ZM242.804 296.324C240.836 291.754 235.82 288.765 230.336 290.238C224.59 291.783 225.277 298.049 222.417 302.375C225.245 301.779 227.234 301.36 230.25 300.725C228.483 303.151 227.52 304.474 226.431 305.97C234.785 307.97 240.655 304.562 242.804 296.324ZM237.388 267.567C235.674 271.656 233.96 275.744 231.921 280.607C240.053 279.678 246.622 278.044 251.481 272.553C253.181 270.631 254.976 268.275 252.166 265.749C248.145 262.136 241.578 262.667 237.388 267.567Z" fill="#373737" fill-opacity="0.24"/>
<path d="M58.3742 311.699C55.8572 316.525 54.9432 316.539 47.7578 311.917C53.9013 297.938 60.0811 283.875 66.5968 269.049C62.5909 269.721 59.4 270.257 56.2102 270.792C54.9814 264.65 55.9057 262.628 61.2466 260.566C70.3184 257.063 79.5947 256.566 88.8278 259.67C99.1404 263.137 101.837 274.711 93.542 281.891C89.3605 285.51 83.5715 287.304 78.4339 289.766C76.985 290.46 75.2692 290.597 72.8085 291.204C75.1785 293.671 77.1564 295.741 79.1467 297.799C81.3181 300.044 83.5713 302.214 85.663 304.531C89.0929 308.33 89.2997 312.32 85.7565 317.085C79.2597 310.087 72.9406 303.28 65.6842 295.464C62.7549 301.944 60.6296 306.646 58.3742 311.699ZM77.6677 267.793C75.0326 272.551 72.3975 277.308 69.7625 282.065C70.0774 282.396 70.3923 282.728 70.7072 283.06C73.8794 282.005 77.2246 281.292 80.1755 279.799C83.1631 278.288 86.2248 276.42 88.4154 273.961C91.3788 270.634 90.1909 268.227 85.7913 267.765C83.3643 267.51 80.8892 267.712 77.6677 267.793Z" fill="#373737" fill-opacity="0.24"/>
<path d="M290.543 295.574C297.432 282.44 306.805 273.261 322.072 271.809C323.292 271.693 324.752 270.163 325.423 268.924C327.612 264.877 329.678 260.738 331.433 256.487C333.273 252.026 336.446 251.364 341.523 252.546C331.966 274.085 322.553 295.302 312.785 317.316C310.042 315.254 307.871 313.622 305.701 311.99C305.911 311.541 306.12 311.091 306.33 310.642C304.239 312.157 302.343 314.283 300.006 315.031C297.115 315.958 292.897 317.057 291.007 315.678C288.757 314.035 287.416 309.84 287.422 306.754C287.429 303.138 289.309 299.525 290.543 295.574ZM301.184 293.842C298.96 298.177 295.623 302.215 297.222 308.734C308.366 301.084 314.764 291.042 320.239 278.945C311.29 281.369 306.203 286.995 301.184 293.842Z" fill="#373737" fill-opacity="0.24"/>
<path d="M144.585 296.99C149.535 291.508 153.793 285.681 159.266 281.414C162.888 278.59 168.207 277.843 172.856 276.466C176.057 275.518 179.41 275.084 182.695 274.421C182.972 274.906 183.248 275.391 183.524 275.876C177.338 289.406 171.151 302.937 164.877 316.659C161.772 316.057 159.178 315.554 156.584 315.051C156.66 314.649 156.736 314.246 156.812 313.844C156.501 313.896 156.141 313.865 155.884 314.013C151.534 316.525 146.877 318.455 142.775 314.22C138.82 310.137 140.728 305.3 142.559 300.795C143.051 299.582 143.786 298.468 144.585 296.99ZM170.915 283.868C160.513 286.589 155.414 294.837 150.713 303.422C149.919 304.872 149.794 306.688 149.36 308.335C149.888 308.753 150.415 309.171 150.943 309.589C154.018 306.898 157.594 304.597 160.056 301.43C164.285 295.988 167.82 290.006 171.508 284.278L171.546 284.119C171.546 284.119 171.596 284.334 170.915 283.868Z" fill="#373737" fill-opacity="0.24"/>
<path d="M253.519 301.141C253.154 300.71 253.169 300.795 253.135 300.814C254.118 299.983 255.259 299.243 256.131 298.264C261.017 292.774 265.282 286.554 270.878 281.94C274.525 278.933 280.012 278.032 284.792 276.568C288.143 275.541 291.69 275.157 296.546 274.215C290.404 287.637 284.835 299.344 279.726 311.249C278.178 314.858 276.566 317.085 272.434 315.989C271.187 315.658 270.035 314.973 267.814 314.001C268.79 313.836 268.42 313.802 268.164 313.957C264.181 316.352 259.928 318.182 255.775 314.928C251.77 311.788 252.919 307.273 253.8 303.037C253.899 302.563 253.859 302.06 253.519 301.141ZM280.465 284.275C271.097 289.842 264.366 297.364 262.355 308.414C273.976 304.081 277.347 292.972 282.934 283.605C282.309 283.746 281.684 283.888 280.465 284.275Z" fill="#373737" fill-opacity="0.24"/>
<path d="M112.868 299.881C109.325 300.847 106.078 301.492 103.019 302.638C101.705 303.13 100.782 304.664 99.6813 305.724C100.906 306.794 102.065 308.689 103.366 308.792C109.114 309.246 113.912 306.887 117.805 302.679C118.25 302.198 118.589 301.62 118.942 301.134C122.775 304.032 122.205 306.774 119.437 309.561C113.559 315.479 106.38 317.771 98.2579 316.496C93.6196 315.769 91.3564 312.322 90.9017 307.774C89.4251 293.002 105.061 275.886 119.868 276.021C123.642 276.055 127.367 277.434 128.023 281.072C128.627 284.422 128.371 289.306 126.328 291.445C122.863 295.075 117.693 297.077 112.868 299.881ZM110.397 286.867C108.13 288.812 105.863 290.757 103.596 292.701C103.966 293.35 104.336 294 104.707 294.649C109.672 292.572 114.675 290.575 119.563 288.329C120.276 288.001 121.019 286.21 120.72 285.593C120.35 284.827 118.794 284.035 117.952 284.213C115.59 284.712 113.331 285.703 110.397 286.867Z" fill="#373737" fill-opacity="0.24"/>
<path d="M175.598 309.166C179.952 304.467 184.002 299.904 188.478 295.805C191.067 293.434 191.484 291.068 190.685 287.931C189.759 284.294 189.111 280.586 188.285 276.634C191.3 276.251 193.964 275.912 197.445 275.469C198.333 278.553 199.286 281.867 200.477 286.001C205.761 279.702 210.53 273.063 220.62 276.137C216.194 280.757 212.293 285.361 207.829 289.334C203.7 293.008 202.016 296.746 204.034 302.186C205.087 305.024 205.115 308.243 205.572 311.077C202.827 312.685 200.493 314.053 197.615 315.739C196.478 311.723 195.39 307.877 193.955 302.803C190.45 306.423 187.66 309.451 184.702 312.302C183.124 313.823 181.254 315.04 179.516 316.395C178.168 314.095 176.82 311.796 175.598 309.166Z" fill="#373737" fill-opacity="0.24"/>
<path d="M299.702 113.652C297.062 113.36 294.423 113.067 291.783 112.774C291.648 113.083 291.513 113.393 291.379 113.702C293.014 114.834 294.649 115.967 296.293 117.106C293.877 119.561 286.653 119.257 271.277 115.787C274.526 112.961 277.027 110.786 279.861 108.32C278.826 99.1572 278.826 99.1572 287.666 97.9185C287.865 96.0563 287.852 94.0724 288.341 92.2206C288.814 90.4254 289.802 88.7658 290.662 86.8254C297.118 93.6199 302.972 104.499 302.193 108.304C299.915 107.142 297.699 106.012 294.455 104.358C296.559 107.974 298.032 110.505 299.57 113.357C299.634 113.678 299.702 113.652 299.702 113.652ZM296.983 102.247C297.151 101.974 297.319 101.701 297.175 100.805C295.383 97.9976 293.592 95.1897 291.353 91.6802C289.738 97.8426 291.732 100.805 296.983 102.247ZM282.174 101.727C281.236 109.113 284.981 109.306 293.698 109.2C291.098 104.95 289.813 99.2762 282.174 101.727ZM278.752 112.588C278.643 113.263 278.534 113.937 278.425 114.612C281.274 114.998 284.123 115.384 287.452 115.835C283.917 111.587 283.917 111.587 278.752 112.588ZM290.907 112.596C290.555 112.445 290.202 112.295 289.85 112.144C290.105 112.485 290.361 112.827 290.907 112.596Z" fill="#373737" fill-opacity="0.24"/>
<path d="M299.619 113.711C301.519 111.953 303.434 110.164 305.692 108.054C308.912 109.044 312.017 111.345 311.417 115.307C310.997 118.079 308.938 121.347 306.613 122.909C303.267 125.158 299.844 123.238 297.082 120.56C298.254 118.286 299.288 116.28 300.012 113.963C299.702 113.652 299.634 113.678 299.619 113.711Z" fill="#373737" fill-opacity="0.24"/>
<path d="M174.893 160.492C174.818 159.879 174.871 159.6 175.005 158.904C177.674 163.944 180.304 169.385 182.778 174.895C182.977 175.34 182.208 176.342 181.723 176.953C179.564 179.671 177.345 182.341 175.106 185.079C173.328 182.8 174.072 180.22 176.45 178.355C181.066 174.735 179.041 170.966 177.273 167.006C176.381 165.01 175.763 162.89 174.893 160.492Z" fill="#373737" fill-opacity="0.24"/>
<path d="M171.588 284.3C171.598 284.334 171.548 284.119 171.548 284.119C171.548 284.119 171.509 284.278 171.579 284.264C171.648 284.251 171.578 284.265 171.588 284.3Z" fill="#373737" fill-opacity="0.24"/>
</svg>
