<svg width="165" height="40" viewBox="0 0 165 40" fill="none" xmlns="http://www.w3.org/2000/svg">
<circle cx="20" cy="20" r="20" fill="#CAF64B"/>
<path fill-rule="evenodd" clip-rule="evenodd" d="M87.3791 23.1502C89.3408 18.3051 92.2328 12.1399 95.5237 8.14384C95.5237 8.14384 92.1232 7.36713 90.6734 9.30887C89.2235 11.2506 88.1882 13.3944 87.4828 15.2953C86.784 17.1785 85.7991 18.9531 84.8131 20.7298C84.2412 21.7603 83.6688 22.7915 83.1517 23.8451C82.4869 25.1994 81.8959 26.5901 81.2776 28.0448C80.9932 28.7137 80.7031 29.3963 80.3975 30.095L84.3509 31.5844C84.6981 30.6104 85.0235 29.667 85.3407 28.7471C86.0128 26.7982 86.6484 24.9549 87.3791 23.1502Z" fill="#373737"/>
<path d="M130.7 25.507C128.241 30.8864 121.953 32.8447 117.378 29.6263C116.924 30.2215 116.471 30.8173 116.022 31.4069C114.243 30.5732 113.836 29.3742 114.547 27.6389C116.552 22.7458 118.493 17.8266 120.522 12.7609C119.651 12.9837 118.761 13.2112 117.838 13.4472C117.225 11.4786 117.868 10.3681 119.826 9.70945C123.257 8.55486 126.663 7.52194 130.295 8.67544C132.892 9.50005 134.032 10.9039 134.142 13.3041C134.248 15.6438 133.303 17.0913 130.883 18.1862C129.79 18.6809 128.661 19.0966 127.944 19.3875C128.875 21.3922 129.769 23.3185 130.684 25.3923C130.706 25.5398 130.7 25.507 130.7 25.507ZM126.684 23.8037C125.92 22.0289 123.974 20.8679 121.846 21.4403C119.616 22.04 119.883 24.4737 118.773 26.1537C119.871 25.9223 120.642 25.7595 121.813 25.5128C121.127 26.4549 120.753 26.9687 120.331 27.5498C123.572 28.3262 125.85 27.0028 126.684 23.8037ZM124.582 12.6359C123.917 14.2237 123.252 15.8116 122.461 17.7001C125.617 17.3392 128.166 16.7045 130.051 14.5721C130.71 13.8259 131.407 12.9106 130.317 11.93C128.756 10.5266 126.208 10.7331 124.582 12.6359Z" fill="#373737"/>
<path d="M55.1194 29.7745C54.1428 31.6489 53.7881 31.6541 51 29.8592C53.3838 24.4302 55.7818 18.9692 58.31 13.2114C56.7556 13.4724 55.5175 13.6804 54.2798 13.8883C53.8029 11.5031 54.1616 10.7177 56.234 9.91692C59.7541 8.55682 63.3536 8.36343 66.9363 9.56889C70.9379 10.9153 71.9843 15.4101 68.7655 18.1984C67.143 19.6039 64.8967 20.3007 62.9032 21.2567C62.341 21.5263 61.6752 21.5797 60.7203 21.8152C61.64 22.7733 62.4074 23.5771 63.1797 24.3763C64.0223 25.2482 64.8966 26.0912 65.7083 26.9908C67.0392 28.4661 67.1194 30.0155 65.7445 31.8663C63.2236 29.1485 60.7716 26.5051 57.9559 23.4695C56.8193 25.9862 55.9946 27.812 55.1194 29.7745ZM62.6058 12.7238C61.5834 14.5712 60.5609 16.4187 59.5384 18.2661C59.6606 18.3949 59.7828 18.5236 59.905 18.6524C61.1359 18.2428 62.4339 17.9659 63.579 17.3863C64.7382 16.7995 65.9263 16.0738 66.7763 15.1189C67.9261 13.8271 67.4652 12.8924 65.758 12.7129C64.8163 12.6139 63.8559 12.6922 62.6058 12.7238Z" fill="#373737"/>
<path d="M145.208 23.5126C147.881 18.412 151.518 14.847 157.442 14.2831C157.916 14.2381 158.482 13.6442 158.742 13.163C159.592 11.5912 160.394 9.98403 161.074 8.33288C161.789 6.60063 163.02 6.3433 164.99 6.80246C161.281 15.1673 157.629 23.4066 153.839 31.9561C152.774 31.1549 151.932 30.5213 151.09 29.8876C151.171 29.713 151.253 29.5384 151.334 29.3639C150.522 29.9522 149.787 30.7778 148.88 31.0686C147.758 31.4284 146.122 31.8555 145.388 31.3198C144.515 30.6819 143.995 29.0525 143.997 27.854C144 26.4497 144.729 25.0469 145.208 23.5126ZM149.337 22.8397C148.474 24.5233 147.179 26.0914 147.8 28.6232C152.124 25.6522 154.607 21.7523 156.731 17.0544C153.258 17.9958 151.285 20.1809 149.337 22.8397Z" fill="#373737"/>
<path d="M88.5722 24.0623C90.4929 21.9333 92.1449 19.6706 94.2686 18.0134C95.6742 16.9165 97.7382 16.6265 99.5419 16.0919C100.784 15.7238 102.085 15.5552 103.36 15.2975C103.467 15.4859 103.574 15.6743 103.681 15.8628C101.281 21.1172 98.8805 26.3716 96.4459 31.7008C95.2412 31.4671 94.2346 31.2717 93.2279 31.0764C93.2575 30.9201 93.287 30.7637 93.3166 30.6074C93.1956 30.6277 93.056 30.6157 92.9565 30.6732C91.2684 31.6485 89.4613 32.3982 87.8696 30.7535C86.3352 29.1679 87.0754 27.2896 87.7858 25.5398C87.9769 25.0689 88.262 24.6362 88.5722 24.0623ZM98.7889 18.9663C94.7525 20.0232 92.7738 23.2263 90.9497 26.5602C90.6417 27.1233 90.5932 27.8286 90.4249 28.4681C90.6296 28.6304 90.8343 28.7927 91.0391 28.955C92.2322 27.9101 93.6198 27.0165 94.575 25.7866C96.2163 23.6732 97.5878 21.3501 99.0188 19.1256L99.0337 19.0637C99.0337 19.0637 99.0531 19.1474 98.7889 18.9663Z" fill="#373737"/>
<path d="M130.841 25.6742C130.7 25.507 130.706 25.5398 130.692 25.5474C131.074 25.2246 131.517 24.9374 131.855 24.557C133.751 22.4252 135.406 20.0094 137.577 18.2175C138.992 17.0498 141.121 16.6998 142.976 16.1313C144.276 15.7327 145.653 15.5835 147.537 15.2178C145.154 20.43 142.993 24.9766 141.011 29.5999C140.41 31.0015 139.784 31.8662 138.181 31.4405C137.697 31.3121 137.25 31.046 136.388 30.6687C136.767 30.6045 136.623 30.5914 136.524 30.6513C134.978 31.5815 133.328 32.2923 131.717 31.0283C130.162 29.8092 130.608 28.0557 130.95 26.4105C130.989 26.2265 130.973 26.0314 130.841 25.6742ZM141.297 19.1246C137.662 21.2863 135.05 24.2077 134.27 28.4987C138.779 26.8159 140.087 22.5021 142.255 18.8642C142.013 18.9192 141.77 18.9742 141.297 19.1246Z" fill="#373737"/>
<path d="M76.2654 25.1849C74.8905 25.56 73.6305 25.8105 72.4434 26.2557C71.9338 26.4469 71.5755 27.0425 71.1485 27.4543C71.6236 27.8698 72.0735 28.6057 72.5783 28.6456C74.8085 28.822 76.6704 27.9056 78.1809 26.2716C78.3535 26.0849 78.485 25.8603 78.6223 25.6715C80.1095 26.7972 79.8881 27.862 78.8143 28.9441C76.5333 31.2426 73.7478 32.1326 70.5962 31.6376C68.7964 31.3549 67.9182 30.0164 67.7418 28.2503C67.1688 22.5134 73.2361 15.8666 78.9813 15.919C80.4458 15.9324 81.8912 16.4678 82.1458 17.8805C82.3802 19.1814 82.2809 21.078 81.4881 21.9091C80.1435 23.3185 78.1377 24.096 76.2654 25.1849ZM75.3065 20.131C74.4268 20.8863 73.5471 21.6415 72.6674 22.3968C72.8111 22.6489 72.9548 22.9009 73.0985 23.153C75.0252 22.3464 76.9663 21.5709 78.863 20.6988C79.1399 20.5715 79.428 19.8758 79.3122 19.6361C79.1685 19.3389 78.5647 19.0312 78.2381 19.1002C77.3213 19.2939 76.4448 19.6788 75.3065 20.131Z" fill="#373737"/>
<path d="M100.605 28.7908C102.295 26.966 103.867 25.1937 105.603 23.602C106.608 22.6813 106.77 21.7623 106.46 20.5442C106.1 19.1318 105.849 17.6919 105.529 16.1571C106.698 16.0082 107.732 15.8765 109.083 15.7046C109.427 16.9022 109.797 18.1891 110.259 19.7948C112.31 17.3484 114.16 14.77 118.075 15.9638C116.358 17.758 114.844 19.5462 113.112 21.0888C111.51 22.5157 110.857 23.9673 111.64 26.0802C112.048 27.1824 112.059 28.4321 112.236 29.533C111.171 30.1575 110.265 30.6885 109.149 31.3433C108.708 29.7838 108.286 28.2903 107.729 26.3198C106.369 27.7257 105.286 28.9012 104.138 30.0087C103.526 30.5992 102.8 31.0721 102.126 31.5981C101.603 30.705 101.08 29.812 100.605 28.7908Z" fill="#373737"/>
<path fill-rule="evenodd" clip-rule="evenodd" d="M19.3043 23.0365L24.1058 23.6227L24.2513 23.3342C24.2513 23.3342 22.3549 19.9966 21.0115 17.7067L21.011 17.7058L25.9528 20.2052C26.4503 17.7955 22.7116 10.9052 18.5885 6.60193C18.4166 6.98649 18.2367 7.35364 18.0614 7.71146C17.6764 8.49709 17.3135 9.23774 17.1058 10.019C16.8882 10.8374 16.8265 11.6965 16.7658 12.5418C16.7395 12.9079 16.7134 13.2713 16.6749 13.6277C13.8832 14.0156 12.472 14.2117 11.8384 15.0125C11.1907 15.8312 11.5487 17.3713 11.8829 20.3051C11.8829 20.3051 9.7655 21.3863 8.68168 22.3245C7.6169 23.2463 6.20801 24.9444 6.20801 24.9444C16.0279 27.1427 20.6417 27.3349 22.1844 25.7799L19.0461 23.624L18.2854 23.0458L17.9943 22.7573L18.7449 22.9236L19.3043 23.0365ZM22.7479 15.4561L23.5237 16.8433C22.5052 16.9875 17.1649 14.353 19.0298 9.67671L22.7479 15.4561ZM20.5271 20.7729C14.9601 20.8401 13.4835 20.4494 13.1673 16.0401C17.2535 14.7398 18.4932 17.0491 19.7634 19.4153C20.0098 19.8743 20.2574 20.3355 20.5271 20.7729ZM9.40923 24.0555L10.1368 23.4785C10.1368 23.4785 10.6272 23.0952 10.9819 22.9185C12.0764 22.3735 13.4232 22.4493 14.1094 22.6854C14.823 22.931 16.5524 23.8376 17.7033 25.2094L9.40923 24.0555Z" fill="#373737"/>
<path d="M24.543 23.5562C24.543 23.5562 26.6109 21.1503 28.0701 19.8058C30.1512 20.4369 32.158 21.9032 31.7701 24.4276C31.4987 26.1939 30.1678 28.2763 28.6655 29.2715C26.5027 30.7042 24.2905 29.481 22.5059 27.7745C23.2631 26.3259 24.543 23.5562 24.543 23.5562Z" fill="#373737"/>
</svg>
