<svg width="40" height="40" viewBox="0 0 40 40" fill="none" xmlns="http://www.w3.org/2000/svg">
<circle cx="20" cy="20" r="20" fill="#CAF64B"/>
<path fill-rule="evenodd" clip-rule="evenodd" d="M19.3043 23.0366L24.1058 23.6229L24.2513 23.3344C24.2513 23.3344 22.3549 19.9967 21.0115 17.7068L21.011 17.7059L25.9528 20.2053C26.4503 17.7956 22.7116 10.9053 18.5885 6.60205C18.4166 6.98662 18.2367 7.35376 18.0614 7.71158C17.6764 8.49722 17.3135 9.23786 17.1058 10.0191C16.8882 10.8375 16.8265 11.6967 16.7658 12.542C16.7395 12.908 16.7134 13.2714 16.6749 13.6278C13.8832 14.0157 12.472 14.2118 11.8384 15.0126C11.1907 15.8313 11.5487 17.3714 11.8829 20.3052C11.8829 20.3052 9.7655 21.3864 8.68168 22.3247C7.6169 23.2465 6.20801 24.9446 6.20801 24.9446C16.0279 27.1428 20.6417 27.335 22.1844 25.78L19.0461 23.6241L18.2854 23.0459L17.9943 22.7574L18.7449 22.9237L19.3043 23.0366ZM22.7479 15.4563L23.5237 16.8434C22.5052 16.9876 17.1649 14.3532 19.0298 9.67683L22.7479 15.4563ZM20.5271 20.773C14.9601 20.8403 13.4835 20.4495 13.1673 16.0402C17.2535 14.74 18.4932 17.0492 19.7634 19.4154C20.0098 19.8745 20.2574 20.3356 20.5271 20.773ZM9.40923 24.0556L10.1368 23.4786C10.1368 23.4786 10.6272 23.0953 10.9819 22.9187C12.0764 22.3737 13.4232 22.4494 14.1094 22.6855C14.823 22.9311 16.5524 23.8377 17.7033 25.2095L9.40923 24.0556Z" fill="#373737"/>
<path d="M24.543 23.5563C24.543 23.5563 26.6109 21.1504 28.0701 19.8059C30.1512 20.4369 32.158 21.9033 31.7701 24.4276C31.4987 26.194 30.1678 28.2763 28.6655 29.2715C26.5027 30.7043 24.2905 29.481 22.5059 27.7746C23.2631 26.326 24.543 23.5563 24.543 23.5563Z" fill="#373737"/>
</svg>
