<svg width="178" height="117" viewBox="0 0 178 117" fill="none" xmlns="http://www.w3.org/2000/svg">
<path fill-rule="evenodd" clip-rule="evenodd" d="M74.356 83.8147C74.187 83.8097 74 83.841 73.7952 83.9414L66.7571 87.0534C66.1181 87.3356 65.9755 87.6598 66.0154 88.3561C66.1579 90.8666 66.0047 93.7065 65.5811 96.4258C64.9378 100.558 63.6422 106.003 60.5332 109.833C59.4548 108.86 58.6906 107.687 58.4706 106.142C58.2716 104.746 58.5046 103.141 58.9953 101.293L62.0711 89.6587C62.1464 89.3367 61.9003 88.9517 61.5102 88.9531C60.8183 88.9541 55.8963 88.9531 55.3765 88.9531C55.032 88.9531 54.6897 89.2245 54.5985 89.5683C52.8373 96.2415 51.0726 102.925 49.3026 109.597C46.472 108.235 45.8294 105.833 46.7337 102.377L50.0987 89.6765C50.1942 89.3111 49.9065 88.9499 49.5377 88.9528H43.5673C43.2293 88.9528 42.7061 89.2879 42.6084 89.6585C41.3868 94.2722 40.1507 98.7599 38.9718 103.373C38.4651 105.355 38.0266 107.499 38.5013 109.344C38.8863 110.843 39.8641 112.069 41.1067 113.071C42.7358 114.385 44.2136 115.23 46.2451 116.002C46.8392 116.209 47.0933 116.13 47.2221 116.038L53.4276 111.732C54.9785 113.119 56.363 114.342 58.2946 115.984C58.5363 116.213 58.7505 116.132 58.964 116.038C62.6433 114.298 65.3587 111.522 67.8836 108.294C69.8985 105.718 71.4965 102.867 72.6776 99.9532C73.9361 96.847 74.7098 93.2203 75.0296 90.2009C75.2323 88.2823 75.3379 86.3667 75.2106 84.5197C75.1932 84.2452 74.869 83.831 74.3653 83.8143L74.356 83.8147ZM8.57296 88.9531C8.138 88.9531 7.69291 89.3142 7.57782 89.7492L0.919603 114.862C0.799013 115.297 1.04073 115.658 1.47566 115.658H13.7968C14.2318 115.658 14.6762 115.297 14.792 114.862L15.8413 110.882C15.9571 110.447 15.6966 110.104 15.2624 110.104H9.67169L15.0631 89.7493C15.1781 89.3144 14.9191 88.9532 14.4841 88.9532H8.56758L8.57296 88.9531ZM25.6886 88.9531C25.2544 88.9531 24.8086 89.3142 24.6935 89.7492L18.0127 114.862C17.8976 115.297 18.1574 115.658 18.5917 115.658H31.4015C31.8363 115.658 32.2809 115.297 32.3967 114.862L33.4643 110.882C33.5794 110.447 33.3203 110.104 32.8854 110.104H26.7702L28.1815 104.766H33.4282C33.8631 104.766 34.3082 104.423 34.4233 103.988L35.4365 100.116C35.5516 99.6814 35.3106 99.3203 34.8756 99.3203H29.6287L30.9133 94.5076H37.0284C37.4641 94.5076 37.9085 94.1645 38.0236 93.7295L39.073 89.7491C39.1888 89.3141 38.9289 88.953 38.494 88.953H25.6842L25.6886 88.9531ZM79.913 88.9531C79.4781 88.9531 79.0344 89.3142 78.9179 89.7492L72.2365 114.88C72.1207 115.314 72.3813 115.658 72.8155 115.658H78.732C79.167 115.658 79.6114 115.314 79.7272 114.88L86.4028 89.7492C86.5186 89.3142 86.2587 88.9531 85.8238 88.9531H79.9072H79.913ZM98.8021 88.9531C98.4344 88.9531 98.0566 89.21 97.8793 89.5501L83.061 114.627C82.8171 115.039 82.9192 115.488 83.2962 115.622C83.37 115.648 83.4511 115.658 83.5314 115.658H89.1945C89.581 115.658 89.9899 115.375 90.1534 115.007L92.8131 110.067H99.2177V115.079C99.2183 115.43 99.4848 115.658 99.8329 115.658H106.039C106.473 115.658 106.918 115.297 107.034 114.862C107.062 114.755 107.067 114.666 107.052 114.572L105.57 89.4959C105.553 89.163 105.292 88.9531 104.956 88.9531H98.7866H98.8021ZM114.199 88.9531C113.759 88.9531 113.313 89.3143 113.198 89.7492L112.13 93.7296C112.015 94.1646 112.274 94.5077 112.709 94.5077H116.454L111.063 114.881C110.941 115.314 111.184 115.658 111.619 115.658H117.553C117.988 115.658 118.433 115.314 118.548 114.88L123.94 94.5072H127.685C128.121 94.5072 128.565 94.1642 128.68 93.7292L129.748 89.7487C129.863 89.3138 129.604 88.9527 129.169 88.9527H114.188L114.199 88.9531ZM138.426 88.9531C138.059 88.9531 137.68 89.21 137.503 89.5501L122.681 114.627C122.438 115.04 122.54 115.488 122.917 115.622C122.99 115.648 123.071 115.659 123.152 115.659H128.815C129.202 115.659 129.592 115.376 129.756 115.007L132.433 110.068H138.82L138.838 115.079C138.838 115.43 139.105 115.658 139.453 115.658H145.659C146.223 115.658 146.746 115.074 146.672 114.573L145.207 89.4963C145.19 89.1634 144.923 88.9535 144.593 88.9535H138.424L138.426 88.9531ZM157.369 88.9531C156.934 88.9531 156.489 89.3142 156.374 89.7492L149.698 114.88C149.582 115.314 149.842 115.658 150.277 115.658H155.253C155.688 115.658 156.133 115.314 156.248 114.88L159.794 101.473L164.317 115.279C164.398 115.527 164.628 115.658 164.896 115.658H169.419C169.854 115.658 170.299 115.315 170.415 114.88L177.084 89.7495C177.199 89.3145 176.94 88.9534 176.505 88.9534H171.494C171.059 88.9534 170.614 89.3145 170.499 89.7495L167.242 101.998L163.117 89.3332C163.036 89.0851 162.804 88.9534 162.538 88.9534H157.363L157.369 88.9531ZM99.2519 98.2167L99.2339 105.092H95.5068L99.2519 98.2167ZM138.876 98.2167L138.858 105.092H135.131L138.876 98.2167Z" fill="#0090D3"/>
<mask id="mask0_167_19" style="mask-type:luminance" maskUnits="userSpaceOnUse" x="36" y="0" width="106" height="76">
<path d="M36.5879 0.951557H141.417V75.991H36.5879V0.951557Z" fill="white"/>
</mask>
<g mask="url(#mask0_167_19)">
<path d="M119.795 68.6713C118.712 72.796 114.488 75.9915 110.235 75.9915L63.1057 75.9884C59.8573 75.9884 57.1357 74.191 55.6674 71.6385C49.3673 69.5639 44.1859 66.2809 40.7745 61.822C29.457 47.0309 41.8749 24.9248 68.5051 12.459L68.6539 12.3908L69.7177 8.3435C70.8202 4.15359 74.8644 0.953073 79.2163 0.953073H107.062C110.114 0.953073 112.753 2.58033 114.281 4.94633C124.212 6.48392 132.451 10.4272 137.227 16.6683C146.498 28.7836 139.841 45.8061 122.495 58.4187L119.795 68.6713Z" fill="#0090D3"/>
<path d="M119.795 68.6719C118.712 72.7966 114.488 75.991 110.235 75.991L63.1058 75.9879C57.4333 75.9879 53.3636 70.51 54.782 65.0903L69.7177 8.34403C70.8202 4.15412 74.8644 0.952585 79.2153 0.952585H107.062C112.656 0.952585 116.865 6.4223 115.384 11.8859L105.153 50.7628L113.144 50.7618C118.855 50.6752 123.092 56.1296 121.658 61.582L119.795 68.6719Z" fill="#0090D3"/>
<path d="M115.28 67.4838C114.728 69.5869 112.381 71.312 110.235 71.312C106.735 71.31 63.1059 71.2927 63.1059 71.309C60.4556 71.309 58.6215 68.839 59.2971 66.2601L74.2338 9.53218C74.8034 7.36284 76.9575 5.63165 79.2155 5.63165H107.062C109.705 5.63165 111.568 8.10157 110.869 10.6795L99.0992 55.4246L113.218 55.4236C115.887 55.3828 117.826 57.7957 117.143 60.394L115.28 67.4838Z" fill="white"/>
<path fill-rule="evenodd" clip-rule="evenodd" d="M113.097 66.9181L114.959 59.8201C115.268 58.6422 114.499 57.6579 113.244 57.6763L96.1721 57.6773L108.687 10.1067C109.023 8.89413 108.278 7.89353 107.062 7.89353H79.2147C77.9971 7.89353 76.7346 8.88802 76.4147 10.1067L61.4779 66.8335C61.1569 68.0522 61.8885 69.0467 63.1041 69.0467C78.8143 69.0559 94.5244 69.0498 110.235 69.0498C111.494 69.0498 112.626 68.041 113.097 66.9181Z" fill="#FFE62F"/>
</g>
</svg>
