<?xml version="1.0" encoding="UTF-8" standalone="no"?>
<!-- Created with Inkscape (http://www.inkscape.org/) -->

<svg
   xmlns:dc="http://purl.org/dc/elements/1.1/"
   xmlns:cc="http://creativecommons.org/ns#"
   xmlns:rdf="http://www.w3.org/1999/02/22-rdf-syntax-ns#"
   xmlns:svg="http://www.w3.org/2000/svg"
   xmlns="http://www.w3.org/2000/svg"
   xmlns:sodipodi="http://sodipodi.sourceforge.net/DTD/sodipodi-0.dtd"
   xmlns:inkscape="http://www.inkscape.org/namespaces/inkscape"
   width="1000"
   height="668.62604"
   viewBox="0 0 264.58333 176.90732"
   version="1.1"
   id="svg8"
   inkscape:version="0.92.4 (5da689c313, 2019-01-14)"
   sodipodi:docname="A.svg">
  <defs
     id="defs2">
    <clipPath
       clipPathUnits="userSpaceOnUse"
       id="clipPath4727">
      <path
         d="M 0,0 H 612 V 792 H 0 Z"
         id="path4725"
         inkscape:connector-curvature="0" />
    </clipPath>
    <clipPath
       clipPathUnits="userSpaceOnUse"
       id="clipPath4707">
      <path
         d="M 0,0 H 612 V 792 H 0 Z"
         id="path4705"
         inkscape:connector-curvature="0" />
    </clipPath>
    <clipPath
       clipPathUnits="userSpaceOnUse"
       id="clipPath264">
      <path
         d="M 259.92,14.844 H 376.39 V 48.165 H 259.92 Z"
         id="path262"
         inkscape:connector-curvature="0" />
    </clipPath>
    <clipPath
       clipPathUnits="userSpaceOnUse"
       id="clipPath248">
      <path
         d="M 259.92,14.845 H 376.39 V 48.166 H 259.92 Z"
         id="path246"
         inkscape:connector-curvature="0" />
    </clipPath>
    <clipPath
       clipPathUnits="userSpaceOnUse"
       id="clipPath232">
      <path
         d="M 259.92,14.844 H 376.39 V 48.165 H 259.92 Z"
         id="path230"
         inkscape:connector-curvature="0" />
    </clipPath>
    <clipPath
       clipPathUnits="userSpaceOnUse"
       id="clipPath220">
      <path
         d="M 259.92,14.845 H 376.39 V 48.166 H 259.92 Z"
         id="path218"
         inkscape:connector-curvature="0" />
    </clipPath>
    <clipPath
       clipPathUnits="userSpaceOnUse"
       id="clipPath466">
      <path
         d="M 0,0 H 793.701 V 595.276 H 0 Z"
         id="path464"
         inkscape:connector-curvature="0" />
    </clipPath>
  </defs>
  <sodipodi:namedview
     id="base"
     pagecolor="#ffffff"
     bordercolor="#666666"
     borderopacity="1.0"
     inkscape:pageopacity="0.82352941"
     inkscape:pageshadow="2"
     inkscape:zoom="0.49497475"
     inkscape:cx="799.19567"
     inkscape:cy="325.73987"
     inkscape:document-units="px"
     inkscape:current-layer="layer1"
     showgrid="false"
     units="px"
     inkscape:window-width="1920"
     inkscape:window-height="1017"
     inkscape:window-x="1912"
     inkscape:window-y="-8"
     inkscape:window-maximized="1"
     inkscape:pagecheckerboard="true"
     fit-margin-top="0"
     fit-margin-left="0"
     fit-margin-right="0"
     fit-margin-bottom="0">
    <inkscape:grid
       type="xygrid"
       id="grid262"
       originx="-803.44092"
       originy="1088.7634" />
  </sodipodi:namedview>
  <metadata
     id="metadata5">
    <rdf:RDF>
      <cc:Work
         rdf:about="">
        <dc:format>image/svg+xml</dc:format>
        <dc:type
           rdf:resource="http://purl.org/dc/dcmitype/StillImage" />
        <dc:title></dc:title>
      </cc:Work>
    </rdf:RDF>
  </metadata>
  <g
     inkscape:label="Layer 1"
     inkscape:groupmode="layer"
     id="layer1"
     transform="translate(-931.38435,-852.19107)">
    <g
       id="g460"
       transform="matrix(1.5532478,0,0,-1.5532478,447.26901,1477.9915)">
      <g
         id="g462"
         clip-path="url(#clipPath466)">
        <g
           id="g468"
           transform="translate(376.0895,342.855)">
          <path
             d="m 0,0 c -1.644,1.615 3.924,2.582 5.754,7.278 0.595,1.529 1.36,6.623 -1.472,9.1 -1.868,1.636 0.089,8.054 6.396,5.906 C 16.454,20.317 17.081,13.3 15.131,8.557 11.123,-1.192 1.643,-1.616 0,0 m -5.838,10.465 c 1.319,3.386 5.053,3.54 6.531,2.302 C 1.305,12.254 0.377,10.562 0.257,9.512 -0.007,7.221 2.467,4.651 -0.748,4.128 -4.228,3.56 -7.019,7.431 -5.838,10.465 M 10.258,-4.713 C 26.297,1.302 20.502,18.88 23.649,18.655 31,18.129 35.427,9.691 34.676,1.064 34.151,-4.975 30.475,-9.578 30.475,-11.014 c 0,-1.751 7.527,2.975 8.927,11.814 1.614,10.19 -2.101,15.229 -4.516,19.498 -0.75,1.324 7.972,6.178 10.993,-0.593 2.537,-5.689 -2.519,-4.648 -1.926,-9.277 0.288,-2.247 5.863,-1.225 5.952,-7.877 0.061,-4.729 -6.053,-3.707 -6.827,-6.87 -0.451,-1.843 1.417,-1.967 1.05,-5.907 -0.175,-1.882 1.794,-2.101 1.926,-1.751 6.81,14.499 32.975,69.919 32.975,69.919 H 56.222 L 40.539,31.481 22.311,60.043 h -1.4 L 3.484,31.881 -11.799,57.942 h -25.708 c 0,0 26.033,-51.542 27.812,-54.778 2.816,-5.127 9.451,-11.815 19.953,-7.877"
             style="fill:#212c68;fill-opacity:1;fill-rule:nonzero;stroke:none"
             id="path470"
             inkscape:connector-curvature="0" />
        </g>
        <g
           id="g472"
           transform="translate(411.0504,296.2989)">
          <path
             d="M 0,0 1.798,7.167 3.596,0 C 3.075,0 2.241,0.026 1.354,0.026 0.912,0.026 0.443,0.026 0,0 m 4.586,-3.674 c 0.339,-1.225 0.704,-2.424 1.043,-3.622 1.797,0.077 3.595,0.13 5.367,0.156 C 9.694,-3.544 7.479,2.606 4.847,11.179 3.883,11.153 2.919,11.127 1.954,11.127 c -0.964,0 -1.901,0.026 -2.866,0.052 -1.355,-4.247 -4.299,-13.289 -6.176,-18.475 1.772,0.077 3.388,0.13 5.16,0.156 l 0.964,3.466 c 0.626,0.026 1.485,0.026 2.449,0.026 0.964,0 2.007,0 3.101,-0.026 m -32.771,-3.622 c -5.42,0 -9.043,2.944 -9.043,8.989 0,5.942 3.57,9.617 9.251,9.617 2.085,0 3.83,-0.417 5.394,-1.199 C -23.235,8.6 -23.6,7.765 -23.99,6.15 l -0.157,-0.052 c -1.093,0.834 -2.37,1.069 -3.465,1.069 -2.763,0 -4.717,-1.799 -4.717,-5.134 0,-3.336 1.798,-5.264 4.847,-5.264 1.225,0 2.397,0.261 3.7,0.938 0.261,-1.485 0.522,-2.111 1.199,-3.44 -1.355,-1.095 -3.701,-1.563 -5.602,-1.563 m 19.896,3.961 c -0.183,-1.225 -0.287,-1.668 -0.287,-2.945 0,-0.313 0,-0.625 0.025,-0.939 -2.943,0.105 -5.445,0.053 -8.233,0.053 -1.616,-0.026 -3.206,-0.13 -3.284,-0.13 0,0.104 0.078,2.423 0.078,3.388 v 2.787 l -1.954,-0.781 c 0,0.312 0.025,0.86 0.025,1.407 0,0.548 -0.025,1.095 -0.025,1.434 l 1.954,0.781 v 4.743 c 0,1.302 -0.182,4.065 -0.26,4.69 l 5.056,0.157 c -0.053,-1.121 -0.079,-2.268 -0.079,-3.388 V 3.597 l 4.403,1.771 c -0.052,-0.364 -0.052,-0.912 -0.052,-1.459 0,-0.547 0,-1.069 0.052,-1.355 l -4.403,-1.772 v -4.196 c 0.938,-0.026 1.824,-0.026 2.736,-0.026 1.434,0 2.841,0.026 4.248,0.105 m 46.217,14.488 0.027,-0.156 C 36.651,7.844 33.03,-3.335 31.961,-7.166 c -0.86,0.052 -1.642,0.078 -2.397,0.078 -1.095,0 -1.824,-0.052 -2.971,-0.078 L 23.909,4.091 21.381,-7.166 c -1.147,0.026 -2.319,0.078 -3.387,0.078 -0.756,0 -1.226,-0.026 -2.086,-0.078 -1.119,3.831 -4.95,15.01 -6.253,18.163 l -0.026,0.156 c 0.678,-0.026 1.85,-0.078 3.022,-0.078 0.808,0 1.642,0.027 2.372,0.078 0.99,-3.7 1.094,-4.456 3.543,-13.211 0.731,2.997 1.252,4.795 2.763,11.205 h 5.395 l 2.631,-11.205 c 2.319,8.677 2.528,9.511 3.179,13.211 0.73,-0.051 1.59,-0.078 2.398,-0.078 1.198,0 2.319,0.052 2.996,0.078 M 52.075,-7.166 c -1.539,0.052 -3.076,0.078 -4.613,0.078 -2.554,0 -5.029,0.027 -7.662,-0.156 0.052,0.548 0.105,2.241 0.105,3.206 v 10.37 c 0,1.303 -0.183,4.196 -0.26,4.821 H 52.36 C 52.178,9.981 52.126,8.782 52.075,7.218 50.641,7.349 48.895,7.375 47.227,7.349 L 44.622,7.296 V 3.935 c 1.954,0 3.882,0 6.175,0.104 -0.026,-0.13 -0.104,-1.069 -0.104,-2.032 0,-0.652 0.026,-1.225 0.104,-1.981 -1.094,0.052 -2.137,0.078 -3.153,0.078 -1.017,0 -2.033,-0.026 -3.022,-0.051 v -3.441 c 1.25,-0.026 2.475,-0.052 3.673,-0.052 1.33,0 2.658,0.026 3.988,0.105 -0.183,-1.225 -0.235,-1.668 -0.235,-2.945 0,-0.313 0,-0.573 0.027,-0.886 m -129.113,0 c -0.861,0.052 -1.642,0.078 -2.398,0.078 -1.094,0 -1.825,-0.052 -2.97,-0.078 L -85.09,4.091 -87.618,-7.166 c -1.147,0.026 -2.32,0.078 -3.388,0.078 -0.756,0 -1.224,-0.026 -2.085,-0.078 -1.12,3.831 -4.951,15.01 -6.253,18.163 l -0.027,0.156 c 0.677,-0.026 1.85,-0.078 3.023,-0.078 0.808,0 1.642,0.027 2.371,0.078 0.991,-3.7 1.095,-4.456 3.545,-13.211 0.729,2.997 1.25,4.795 2.761,11.205 h 5.395 l 2.632,-11.205 c 2.319,8.677 2.527,9.511 3.179,13.211 0.729,-0.051 1.589,-0.078 2.397,-0.078 1.199,0 2.319,0.052 2.997,0.078 l 0.026,-0.156 C -72.348,7.844 -75.97,-3.335 -77.038,-7.166 m 29.497,3.649 c -2.372,0 -3.779,2.396 -3.779,5.576 0,3.075 1.355,5.446 3.752,5.446 2.372,0 3.883,-2.398 3.883,-5.577 0,-3.075 -1.485,-5.445 -3.856,-5.445 m 0,14.827 c -4.874,0 -8.73,-3.414 -8.73,-9.382 0,-6.358 3.778,-9.224 8.651,-9.224 4.873,0 8.73,3.388 8.73,9.355 0,6.385 -3.753,9.251 -8.651,9.251 M -64.378,7.922 V 3.597 l 4.404,1.771 c -0.052,-0.364 -0.052,-0.912 -0.052,-1.459 0,-0.547 0,-1.069 0.052,-1.355 l -4.404,-1.772 v -4.196 c 0.938,-0.026 1.824,-0.026 2.737,-0.026 1.433,0 2.84,0.026 4.247,0.105 -0.183,-1.225 -0.287,-1.668 -0.287,-2.945 0,-0.313 0,-0.625 0.026,-0.939 -2.944,0.105 -5.446,0.053 -8.235,0.053 -1.615,-0.026 -3.205,-0.13 -3.283,-0.13 0,0.104 0.078,2.423 0.078,3.388 v 2.787 l -1.955,-0.781 c 0,0.312 0.026,0.86 0.026,1.407 0,0.548 -0.026,1.095 -0.026,1.434 l 1.955,0.781 v 4.743 c 0,1.302 -0.183,4.065 -0.26,4.69 l 5.055,0.157 c -0.052,-1.121 -0.078,-2.268 -0.078,-3.388 M 54.998,6.463 c 0,1.302 -0.182,4.065 -0.261,4.69 1.903,0 4.638,0.157 5.056,0.157 C 59.766,10.632 59.714,8.886 59.714,7.922 V 2.84 c 1.277,1.903 4.794,7.141 5.368,8.313 1.825,0 3.675,-0.051 5.498,0.105 V 11.075 L 64.431,2.476 c 0.912,-1.304 4.769,-6.88 6.54,-9.251 V -7.14 c -1.198,0 -3.961,-0.104 -5.471,-0.156 -1.434,2.163 -4.352,6.54 -5.786,8.729 v -3.882 c 0,-1.303 0.157,-4.065 0.235,-4.691 -2.007,0 -4.951,-0.156 -5.03,-0.156 0,0.052 0.079,2.423 0.079,3.388 z"
             style="fill:#212c68;fill-opacity:1;fill-rule:nonzero;stroke:none"
             id="path474"
             inkscape:connector-curvature="0" />
        </g>
      </g>
    </g>
  </g>
</svg>
