<svg width="210" height="116" viewBox="0 0 210 116" fill="none" xmlns="http://www.w3.org/2000/svg">
<path d="M93.1699 80.2H96.6499C99.4199 80.2 101.86 80.93 101.86 84.23V84.54C101.86 87.76 99.4199 88.61 96.6499 88.61H95.4899V92.75C95.4899 92.75 93.1699 92.75 93.1699 91.63V80.21V80.2ZM95.4899 81.91V86.89H96.6499C98.3499 86.89 99.5399 86.58 99.5399 84.38C99.5399 82.34 98.3499 81.91 96.6499 81.91H95.4899Z" fill="#090909"/>
<path d="M113.981 88.67C113.981 91.23 112.321 92.77 108.771 92.77C105.221 92.77 103.561 91.23 103.561 88.67V84.09C103.561 81.53 105.201 79.99 108.771 79.99C112.341 79.99 113.981 81.53 113.981 84.09V88.67ZM111.671 84.31C111.671 82.67 111.201 81.7 108.761 81.7C106.321 81.7 105.891 82.67 105.891 84.31V88.45C105.891 90.09 106.361 91.06 108.761 91.06C111.161 91.06 111.671 90.09 111.671 88.45V84.31Z" fill="#090909"/>
<path d="M117.711 87.6901L116.191 83.1401C115.761 81.8401 115.461 80.8001 115.121 80.2901C115.121 80.2901 115.691 80.1001 116.071 80.1001C117.701 80.1001 118.061 81.5001 118.491 82.8001L119.981 87.2501C120.451 88.7001 121.191 89.9501 121.191 89.9501C121.191 89.9501 122.121 88.9501 122.941 86.8501C122.941 86.8501 122.321 84.3601 122.321 82.5901C122.321 81.1501 123.131 80.3801 124.661 80.3801C124.591 80.9701 124.561 81.5401 124.561 82.0901C124.561 86.6401 126.691 89.9501 126.691 89.9501C126.691 89.9501 127.421 88.7201 127.881 87.2501L129.371 82.8001C129.801 81.5001 130.181 80.1001 131.791 80.1001C132.191 80.1001 132.761 80.2901 132.761 80.2901C132.411 80.8101 132.121 81.8601 131.691 83.1401L130.171 87.6901C128.981 91.2401 126.691 92.9801 126.691 92.9801C126.691 92.9801 124.981 91.6101 123.941 89.2801C122.891 91.7401 121.191 92.9801 121.191 92.9801C121.191 92.9801 118.911 91.2501 117.731 87.6901H117.711Z" fill="#090909"/>
<path d="M134.061 80.02C134.061 80.02 136.381 80.02 136.381 81.14V92.73C136.381 92.73 134.061 92.73 134.061 91.61V80.02Z" fill="#090909"/>
<path d="M146.85 85.09L148.32 89.64C148.74 90.94 149.05 91.98 149.39 92.49C149.39 92.49 148.82 92.68 148.42 92.68C146.79 92.68 146.4 91.28 145.96 89.98L145.67 89.06H141.31L141.02 89.98C140.59 91.28 140.19 92.68 138.56 92.68C138.16 92.68 137.59 92.49 137.59 92.49C137.94 91.97 138.25 90.93 138.66 89.64L140.13 85.09C141.29 81.53 143.23 79.97 143.49 79.8C143.75 79.97 145.69 81.53 146.85 85.09ZM142.35 85.54L141.81 87.34H145.17L144.63 85.54C144.2 84.09 143.49 82.62 143.49 82.62C143.21 83.05 142.78 84.09 142.35 85.54Z" fill="#090909"/>
<path d="M155.522 81.9099V92.7399C155.522 92.7399 153.202 92.7399 153.202 91.6199V81.9099H151.072C149.632 81.9099 149.432 80.8199 149.432 79.9199C149.432 79.9199 150.042 80.1999 151.352 80.1999H157.422C158.742 80.1999 159.342 79.9199 159.342 79.9199C159.342 80.8199 159.132 81.9099 157.702 81.9099H155.522Z" fill="#090909"/>
<path d="M94.6408 105.69L93.1208 101.14C92.6908 99.8401 92.3908 98.8001 92.0508 98.2901C92.0508 98.2901 92.6208 98.1001 93.0008 98.1001C94.6308 98.1001 94.9908 99.5001 95.4208 100.8L96.9108 105.25C97.3808 106.7 98.1208 107.95 98.1208 107.95C98.1208 107.95 99.0508 106.95 99.8708 104.85C99.8708 104.85 99.2508 102.36 99.2508 100.59C99.2508 99.1501 100.061 98.3801 101.591 98.3801C101.521 98.9701 101.491 99.5401 101.491 100.09C101.491 104.64 103.621 107.95 103.621 107.95C103.621 107.95 104.351 106.72 104.811 105.25L106.301 100.8C106.731 99.5001 107.111 98.1001 108.721 98.1001C109.121 98.1001 109.691 98.2901 109.691 98.2901C109.341 98.8101 109.051 99.8601 108.621 101.14L107.101 105.69C105.911 109.24 103.621 110.98 103.621 110.98C103.621 110.98 101.911 109.61 100.871 107.28C99.8208 109.74 98.1208 110.98 98.1208 110.98C98.1208 110.98 95.8408 109.25 94.6608 105.69H94.6408Z" fill="#090909"/>
<path d="M112.881 110.57C112.881 110.57 110.991 110.57 110.991 109.45V104.99L110.251 105.28C110.251 105.28 109.781 104.59 109.781 104.12C109.781 103.81 109.921 103.51 110.371 103.32L110.991 103.06V98.02C110.991 98.02 113.311 98.02 113.311 99.14V102.1L114.211 101.72C114.211 101.72 114.711 102.43 114.711 102.9C114.711 103.19 114.551 103.52 114.091 103.71L113.311 104.02V108.85H117.171C118.641 108.85 119.091 108.57 119.091 108.57C119.091 109.47 118.851 110.56 117.791 110.56H112.881V110.57Z" fill="#090909"/>
<path d="M130.65 106.67C130.65 109.23 128.99 110.77 125.44 110.77C121.89 110.77 120.23 109.23 120.23 106.67V102.09C120.23 99.53 121.87 97.99 125.44 97.99C129.01 97.99 130.65 99.53 130.65 102.09V106.67ZM128.33 102.31C128.33 100.67 127.86 99.7 125.42 99.7C122.98 99.7 122.55 100.67 122.55 102.31V106.45C122.55 108.09 123.02 109.06 125.42 109.06C127.82 109.06 128.33 108.09 128.33 106.45V102.31Z" fill="#090909"/>
<path d="M135.05 102.49V106.26C135.05 108.34 136.31 108.99 138.03 108.99C139.75 108.99 141.73 108.64 142.27 106.91C143.86 109.7 140.9 110.77 138.03 110.77C135.16 110.77 132.74 109.66 132.74 106.51V102.24C132.74 99.09 135.27 97.98 138.03 97.98C140.79 97.98 144.02 98.95 142.27 101.84C141.84 100.25 139.71 99.78 138.03 99.78C136.35 99.78 135.05 100.42 135.05 102.48V102.49Z" fill="#090909"/>
<path d="M146.731 110.57C146.731 110.57 144.841 110.57 144.841 109.45V104.99L144.101 105.28C144.101 105.28 143.631 104.59 143.631 104.12C143.631 103.81 143.771 103.51 144.221 103.32L144.841 103.06V98.02C144.841 98.02 147.161 98.02 147.161 99.14V102.1L148.061 101.72C148.061 101.72 148.561 102.43 148.561 102.9C148.561 103.19 148.401 103.52 147.941 103.71L147.161 104.02V108.85H151.021C152.491 108.85 152.941 108.57 152.941 108.57C152.941 109.47 152.701 110.56 151.641 110.56H146.731V110.57Z" fill="#090909"/>
<path d="M162.311 103.09L163.781 107.64C164.201 108.94 164.511 109.98 164.851 110.49C164.851 110.49 164.281 110.68 163.881 110.68C162.251 110.68 161.861 109.28 161.421 107.98L161.131 107.06H156.771L156.481 107.98C156.051 109.28 155.651 110.68 154.021 110.68C153.621 110.68 153.051 110.49 153.051 110.49C153.401 109.97 153.711 108.93 154.121 107.64L155.591 103.09C156.751 99.53 158.691 97.97 158.951 97.8C159.211 97.97 161.151 99.53 162.311 103.09ZM157.811 103.54L157.271 105.34H160.631L160.091 103.54C159.661 102.09 158.951 100.62 158.951 100.62C158.671 101.05 158.241 102.09 157.811 103.54Z" fill="#090909"/>
<path d="M167.531 105.69L166.011 101.14C165.581 99.8401 165.281 98.8001 164.941 98.2901C164.941 98.2901 165.511 98.1001 165.891 98.1001C167.521 98.1001 167.881 99.5001 168.311 100.8L169.801 105.25C170.271 106.7 171.011 107.95 171.011 107.95C171.011 107.95 171.941 106.95 172.761 104.85C172.761 104.85 172.141 102.36 172.141 100.59C172.141 99.1501 172.951 98.3801 174.481 98.3801C174.411 98.9701 174.381 99.5401 174.381 100.09C174.381 104.64 176.511 107.95 176.511 107.95C176.511 107.95 177.241 106.72 177.701 105.25L179.191 100.8C179.621 99.5001 180.001 98.1001 181.611 98.1001C182.011 98.1001 182.581 98.2901 182.581 98.2901C182.231 98.8101 181.941 99.8601 181.511 101.14L179.991 105.69C178.801 109.24 176.511 110.98 176.511 110.98C176.511 110.98 174.801 109.61 173.761 107.28C172.711 109.74 171.011 110.98 171.011 110.98C171.011 110.98 168.731 109.25 167.551 105.69H167.531Z" fill="#090909"/>
<path d="M188.332 97.99C190.822 97.99 192.882 98.48 192.882 100.14C192.882 100.61 192.692 101.19 192.312 101.89C192.312 100.16 190.272 99.8 188.352 99.8C186.842 99.8 185.752 100.23 185.752 101.41C185.752 104.27 193.292 101.46 193.292 106.95C193.292 109.51 191.142 110.77 188.202 110.77C186.042 110.77 183.632 110.23 183.632 108.61C183.632 108.16 183.822 107.62 184.252 107C184.252 108.68 186.522 108.99 188.202 108.99C190.002 108.99 190.882 108.28 190.882 107.1C190.882 103.9 183.352 106.65 183.352 101.67C183.352 98.87 185.582 98 188.322 98L188.332 97.99Z" fill="#090909"/>
<path d="M197.531 110.74C197.531 110.74 195.211 110.74 195.211 109.62V98.03C195.211 98.03 197.531 98.03 197.531 99.15V103.18C199.291 102.82 200.441 101.35 201.681 99.11C202.181 98.19 203.051 97.99 203.671 97.99C204.101 97.99 204.731 98.15 204.731 98.15C203.381 100.28 202.291 103.12 200.041 103.98C201.961 104.52 203.361 106.96 204.261 108.79C204.571 109.4 204.811 109.91 205.251 110.54C205.251 110.54 204.561 110.71 204.191 110.71C203.581 110.71 202.551 110.5 202.041 109.59C200.951 107.63 199.961 105.28 197.521 104.8V110.75L197.531 110.74Z" fill="#090909"/>
<path d="M206.352 98.02C206.352 98.02 208.672 98.02 208.672 99.14V110.73C208.672 110.73 206.352 110.73 206.352 109.61V98.02Z" fill="#090909"/>
<path d="M18.6003 18.53H0.0703125V37.05H18.6003V18.53Z" fill="#F7941D"/>
<path d="M18.5905 37.04H0.0605469V55.63H18.5905V37.04Z" fill="#A93124"/>
<path d="M92.7507 18.52H74.2207V37.05H92.7507V18.52Z" fill="#9E1C1F"/>
<path d="M92.7507 37.04H74.2207V55.62H92.7507V37.04Z" fill="#871619"/>
<path d="M55.7097 18.52H37.1797V37.04H55.7097V18.52Z" fill="#EA4C24"/>
<path d="M55.7097 37.04H37.1797V55.63H55.7097V37.04Z" fill="#E22E25"/>
<path d="M55.7097 55.6201H37.1797V74.1401H55.7097V55.6201Z" fill="#9F1D25"/>
<mask id="mask0_167_70" style="mask-type:luminance" maskUnits="userSpaceOnUse" x="0" y="0" width="210" height="116">
<path d="M209.191 0H0.0605469V115.69H209.191V0Z" fill="white"/>
</mask>
<g mask="url(#mask0_167_70)">
<path d="M0.0703125 6.87001C0.0703125 3.07001 3.18031 0.0100098 6.99031 0.0100098H7.08031H18.6003V18.53H0.0703125V6.87001Z" fill="#F9ED32"/>
<path d="M85.8807 0C89.6807 0 92.7407 3.11 92.7407 6.92V7.01V18.53H74.2207V0H85.8807Z" fill="#FBB040"/>
<path d="M37.1198 55.6299H18.5898V74.2199H37.1198V55.6299Z" fill="#BE1E2D"/>
<path d="M74.2312 55.6201H55.7012V74.2101H74.2312V55.6201Z" fill="#631F1B"/>
<path d="M92.7409 67.2801C92.7409 71.0801 89.6309 74.1301 85.8209 74.1301H85.7309H74.2109V55.6101H92.7409V67.2701V67.2801Z" fill="#231F20"/>
<path d="M6.93008 74.1501C3.13008 74.1501 0.0800781 71.0401 0.0800781 67.2301V67.1401V55.6201H18.6001V74.1501H6.94007H6.93008Z" fill="#EF4136"/>
</g>
</svg>
