<svg width="487" height="503" viewBox="0 0 487 503" fill="none" xmlns="http://www.w3.org/2000/svg">
<path d="M251.077 0.376984C389.579 0.376984 501.856 112.654 501.856 251.157C501.856 389.659 389.579 501.936 251.077 501.936C112.574 501.936 0.296875 389.659 0.296875 251.157C0.296875 112.654 112.574 0.376984 251.077 0.376984Z" stroke="black" stroke-width="0.5669" stroke-miterlimit="22.9256"/>
<path fill-rule="evenodd" clip-rule="evenodd" d="M198.302 213.596C195.899 221.751 202.894 215.503 200.339 225.379C198.285 233.318 202.047 231.222 203.523 237.624C200.044 241.93 200.176 239.374 196.921 241.821C197.34 244.273 198.505 245.169 200.486 246.417L201.821 247.033C200.888 254.071 198.862 244.631 199.224 256.813L200.161 293.971C200.554 302.431 204.042 302.335 200.03 315.854C198.64 320.534 200.489 324.92 200.465 329.583C200.416 339.257 199.829 332.739 202.704 346.406C204.458 354.748 200.585 360.491 203.416 366.369C205.998 371.73 206.302 377.84 214.195 374.717C214.814 371.879 214.342 372.209 214.561 369.041C214.973 363.077 217.493 362.832 214.873 357.426C213.875 355.368 212.529 355.013 210.835 353.87C211.2 351.315 211.619 351.121 212.701 349.033C212.82 348.802 213.169 348.152 213.282 347.915L214.804 344.275L215.418 349.182C215.494 349.375 215.602 349.594 215.696 349.768L222.131 355.475C221.799 357.948 222.032 360.843 221.497 363.064C220.777 366.045 219.912 365.359 219.743 370.37C219.263 384.527 222.756 382.403 211.75 389.669C209.014 391.476 206.638 390.294 204.052 390.413C200.836 390.56 200.238 391.437 198.545 388.82C195.408 383.967 202.448 385.726 198.23 373.839L196.493 364.728C194.011 355.789 196.813 337.922 195.534 329.451C195.436 328.804 195.144 327.86 195.142 327.851C194.247 322.641 195.236 313.902 195.305 309.078C195.387 303.398 194.196 302.773 194.992 295.43L192.239 293.388C190.568 291.53 192.132 292.819 191.412 288.589C190.824 285.134 190.596 273.379 190.573 267.879C188.607 266.785 192.205 267.066 190.126 268.264C188.988 268.92 189.635 269.866 187.669 266.75C190.767 263.877 188.13 261.283 186.901 256.875C185.129 250.512 191.006 245.787 181.334 250.463C182.04 254.217 182.119 263.461 179.946 266.592C175.834 272.515 177.855 276.067 174.873 285.988C173.37 290.987 175.72 290.462 173.977 297.244L171.18 308.399C170.026 313.742 168.219 319.537 165.947 324.764C165.627 325.501 164.44 328.36 164.432 328.392C163.937 330.528 164.488 330.766 164.426 331.079C164.426 331.081 163.098 333.369 162.961 333.676C161.459 337.038 162.607 339.472 161.438 343.756C159.787 349.804 161.912 370.896 160.559 379.928C159.802 380.469 160.175 380.494 158.798 381.011C154.01 382.808 148.543 378.356 143.876 376.502C140.303 375.081 138.72 374.451 135.858 372.259C133.449 370.413 130.633 370.364 128.709 369.001L112.963 356.579C109.832 353.586 106.394 352.415 104.751 348.542C101.416 340.681 102.519 344.156 100.828 342.488C98.2764 339.972 99.7088 337.268 97.2373 333.524C95.4871 330.873 96.5708 329.552 95.56 326.426C94.6254 323.535 94.8743 327.483 94.0698 323.538C93.8847 322.629 94.0477 320.004 93.9743 318.542C93.4493 308.1 95.1858 304.44 98.4457 296.35C99.497 293.74 100.359 293.268 102.31 291.379C102.376 291.315 102.548 291.128 102.608 291.063C102.667 291 102.818 290.789 102.871 290.726L104.448 289.594C106.149 283.317 112.058 279.098 116.784 275.14L121.846 271.05C122.949 270.167 122.276 270.648 123.283 269.837L130.759 263.004L136.21 260.994C140.333 259.685 142.904 258.221 146.575 255.905L149.963 253.113C149.298 251.521 147.605 249.441 145.444 248.78C141.422 247.549 133.168 250.932 130.234 253.418C124.108 258.607 124.148 253.443 121.748 264.005C118.021 263.677 120.249 262.562 115.128 264.152L108.772 265.828C108.664 265.856 106.106 266.613 106.029 266.642C103.532 267.584 94.7286 274.958 94.213 276.565C94.3417 282.717 96.7092 276.846 94.5676 282.702C93.3651 285.99 92.7378 285.616 92.6755 289.483C92.5207 299.108 89.5378 295.387 87.4073 299.98C86.4775 301.985 87.0226 304.485 86.1099 307.339C85.101 310.493 84.3184 310.138 84.0085 313.901C82.5736 331.342 85.2478 328.323 88.4952 331.917C91.0937 334.794 93.0788 342.654 96.5915 347.306L101.482 353.631C104.907 357.849 109.211 361.547 113.603 364.279C117.955 366.986 123.695 372.631 127.675 374.48L140.771 382.159C144.827 384.164 148.683 384.951 152.761 387.674C155.01 389.175 151.688 387.789 155.371 389.222C157.199 389.933 157.023 389.909 158.347 389.466C158.352 393.743 157.608 393.617 155.761 396.824C154.371 399.239 152.767 399.799 151.66 401.643C154.063 408.274 158.67 411.935 158.852 418.995C159.002 424.798 157.655 439.162 165.916 438.735C171.44 438.45 172.688 436.874 181.369 437.29L183.49 437.708C185.856 438.405 191.063 435.937 192.999 434.749C192.488 428.45 197.663 423.687 197.864 416.402C197.995 411.64 196.447 413.105 199.936 410.017C197.51 407.877 197.257 408.917 198.155 404.72C202.304 404.506 213.478 404.622 217.35 406.271C214.13 413.658 214.408 409.489 218.517 414.609C218.629 414.748 218.801 414.942 218.902 415.092C221.176 418.476 220.808 425.57 220.066 429.287C218.965 434.802 216.587 434.962 219.109 441.953C221.349 448.162 217.83 448.333 224.494 450.885C226.302 448.324 224.122 450.105 226.797 449.206C226.858 445.306 227.398 442.03 227.302 438.079C227.25 435.909 227.17 434.199 226.762 432.578L225.66 427.716C225.003 422.593 227.082 415.114 227.528 408.005C230.224 405.893 232.85 405.145 235.931 405.118C242.892 405.058 239.723 406.486 247.141 404.946C251.786 403.981 262.525 404.167 268.508 403.379C275.121 402.507 280.604 401.717 286.908 399.122C287.023 399.075 287.252 398.976 287.365 398.937L292.448 397.667C292.592 397.614 292.827 397.5 292.964 397.448C293.091 397.4 293.32 397.293 293.442 397.247C300.038 394.779 302.486 395.717 309.266 392.652C314.313 390.371 319.93 388.806 324.723 386.183C330.284 383.141 327.277 385.6 333.383 383.779C334.714 383.382 334.895 383.329 335.93 382.767L342.865 378.403C346.454 376.771 349.435 375.011 351.346 372.14L356.796 365.621C359.392 361.027 358.481 354.364 355.401 349.677C354.678 348.576 352.672 347.101 351.197 346.818C348.817 346.361 346.874 347.241 344.369 347.839L341.83 344.055C340.197 345.068 341.436 344.258 340.2 345.304C334.729 349.933 340.711 353.562 329.615 354.632C324.285 355.146 322.375 357.411 318.537 359.501C314.478 361.711 305.924 368.837 302.423 370.475L298.766 372.449C295.997 374.369 293.297 375.171 290.484 376.446C290.336 376.514 290.118 376.661 289.979 376.726L283.169 379.32C274.465 383.416 264.45 384.225 255.158 386.843C253.389 387.341 255.885 386.924 252.99 387.443C247.515 388.425 239.987 388.834 234.509 390.069C231.711 390.7 229.17 394.665 226.3 384.359C225.578 381.766 225.637 382.417 224.046 379.928C225.034 377.762 224.067 379.999 224.864 378.487C227.412 373.658 226.979 371.229 226.936 365.916L226.68 351.903C226.06 346.174 223.396 348.588 219.528 346.922C220.234 343.364 223.361 343.284 226.99 342.379L227.536 318.695C227.556 315.076 226.538 315.765 225.991 313.079C225.98 313.024 224.985 307.643 224.873 306.666C224.56 303.954 226.221 302.675 226.835 300.625C227.385 298.793 227.385 289.839 227.369 286.792C223.271 287.056 221.636 285.449 218.687 287.941C215.435 290.689 217.819 292.867 218.237 296.838C218.861 302.778 216.974 301.916 216.522 305.359C216.027 309.128 217.479 312.019 215.037 314.917L212.077 305.677C212.825 294.93 211.975 298.712 211.368 291.91C211.241 290.482 211.522 291.063 212.488 290.462C212.551 286.347 213 279.801 211.861 276.113L211.163 274.297C210.453 271.267 212.302 269.391 212.5 266.785C212.923 261.236 210.225 255.656 211.121 243.062C214.315 242.088 213.319 241.105 215.469 242.317L215.414 239.794L211.257 237.889C208.033 235.343 208.235 230.44 209.905 227.133C211.469 224.039 210.889 227.932 211.005 223.355C211.059 221.266 211.153 220.058 211.302 218.117C212.022 208.747 203.574 210.825 198.302 213.596Z" fill="black"/>
<path fill-rule="evenodd" clip-rule="evenodd" d="M180.498 226.42C180.377 228.721 180.212 227.116 180.761 229.262L181.844 232.309L185.462 235.907C186.046 233.851 186.623 232.959 188.531 231.689C186.751 228.353 187.245 230.757 186.238 229.019C185.384 227.545 185.769 226.401 184.872 224.496C182.523 224.911 181.624 225.216 180.498 226.42Z" fill="black"/>
<path fill-rule="evenodd" clip-rule="evenodd" d="M159.157 245.834C159.923 250.773 158.565 247.125 159.212 250.456C159.423 250.357 159.737 249.963 159.846 250.158L168.375 248.208C171.264 246.764 169.717 247.302 170.687 246.164C167.484 242.333 163.262 244.202 159.157 245.834Z" fill="black"/>
<path d="M186.794 86.8479H201.068L177.395 149.268H167.642L153.101 111.141L138.205 149.268H128.717L104.865 86.8479H119.497L133.594 126.569L148.579 86.8479H157.178L172.341 126.038L186.794 86.8479ZM250.454 149.268L246.02 138.629H218.003L213.481 149.268H199.738L227.135 86.8479H237.686L264.818 149.268H250.454ZM222.613 127.544H241.321L232.012 105.377L222.613 127.544ZM310.569 115.487C313.524 116.963 315.815 118.988 317.44 121.56C319.065 124.132 319.878 126.983 319.878 130.116C319.878 134.016 318.977 137.417 317.175 140.312C315.372 143.209 312.86 145.426 309.638 146.963C306.416 148.499 302.766 149.268 298.688 149.268H269.694V86.8479H297.534C300.963 86.8479 304.155 87.5279 307.11 88.8863C310.067 90.2463 312.444 92.2266 314.248 94.8266C316.052 97.4288 316.953 100.53 316.953 104.137C316.953 108.569 314.824 112.353 310.569 115.487ZM283.083 98.462V112.56H295.939C298.244 112.56 300.062 111.91 301.392 110.61C302.722 109.31 303.386 107.594 303.386 105.468C303.386 104.166 303.077 102.984 302.455 101.921C301.835 100.857 300.963 100.015 299.839 99.3929C298.718 98.7729 297.416 98.462 295.939 98.462H283.083ZM298.156 137.652C300.401 137.652 302.249 137.002 303.697 135.702C305.146 134.402 305.87 132.688 305.87 130.56C305.87 129.26 305.515 128.076 304.805 127.013C304.097 125.949 303.15 125.091 301.968 124.441C300.786 123.791 299.486 123.466 298.066 123.466H283.083V137.652H298.156ZM327.503 149.268V86.8479H340.893V149.268H327.503ZM349.937 129.141V117.969H376.979V129.141H349.937Z" fill="black"/>
<path d="M253.8 232.232C238.372 232.232 229.801 226.145 228.088 213.967L241.742 212.46C242.156 215.121 243.337 217.041 245.289 218.224C247.24 219.406 250.106 219.996 253.888 219.996C257.967 219.996 260.864 219.464 262.579 218.401C264.293 217.338 265.149 215.711 265.149 213.524C265.149 211.692 264.323 210.243 262.667 209.18C261.012 208.115 258.44 207.228 254.953 206.52L248.925 205.366C242.657 204.126 237.766 202.056 234.249 199.161C230.732 196.264 228.975 192.097 228.975 186.658C228.975 182.874 229.89 179.55 231.723 176.683C233.555 173.816 236.317 171.599 240.013 170.035C243.707 168.468 248.244 167.683 253.623 167.683C261.367 167.683 267.19 169.266 271.09 172.428C274.992 175.59 277.267 179.861 277.917 185.24L264.706 186.835C264.234 184.529 263.111 182.802 261.337 181.649C259.564 180.497 257.052 179.919 253.8 179.919C251.14 179.919 249.041 180.142 247.504 180.585C245.967 181.029 244.874 181.693 244.224 182.579C243.574 183.466 243.249 184.62 243.249 186.038C243.249 187.278 243.634 188.327 244.403 189.186C245.171 190.043 246.397 190.797 248.082 191.447C249.765 192.097 252.027 192.687 254.865 193.22L260.627 194.46C266.716 195.702 271.415 197.727 274.725 200.535C278.035 203.342 279.69 207.465 279.69 212.904C279.69 219.051 277.518 223.81 273.174 227.178C268.829 230.549 262.371 232.232 253.8 232.232ZM331.827 231.168L327.393 220.53H299.376L294.853 231.168H281.111L308.508 168.748H319.059L346.191 231.168H331.827ZM303.986 209.445H322.694L313.385 187.278L303.986 209.445ZM391.941 197.387C394.897 198.864 397.188 200.888 398.813 203.46C400.438 206.032 401.25 208.883 401.25 212.017C401.25 215.917 400.35 219.318 398.548 222.213C396.744 225.11 394.232 227.327 391.011 228.863C387.788 230.4 384.139 231.168 380.06 231.168H351.066V168.748H378.907C382.335 168.748 385.528 169.428 388.483 170.787C391.44 172.147 393.817 174.127 395.621 176.727C397.424 179.329 398.325 182.431 398.325 186.038C398.325 190.47 396.196 194.254 391.941 197.387ZM364.456 180.363V194.46H377.312C379.617 194.46 381.435 193.81 382.765 192.51C384.095 191.211 384.759 189.495 384.759 187.368C384.759 186.066 384.45 184.885 383.828 183.821C383.208 182.758 382.335 181.915 381.212 181.293C380.091 180.673 378.788 180.363 377.312 180.363H364.456ZM379.529 219.552C381.774 219.552 383.622 218.902 385.07 217.602C386.519 216.302 387.243 214.589 387.243 212.46C387.243 211.16 386.888 209.977 386.177 208.913C385.469 207.85 384.522 206.991 383.341 206.341C382.159 205.691 380.859 205.366 379.438 205.366H364.456V219.552H379.529ZM408.876 231.168V168.748H422.266V231.168H408.876Z" fill="black"/>
<path d="M324.998 318.596V325.44H288.1V321.273L302.085 307.287C306.152 303.221 309.153 299.762 311.087 296.909C313.021 294.058 313.988 291.368 313.988 288.838C313.988 287.153 313.629 285.59 312.909 284.151C312.191 282.713 311.075 281.547 309.562 280.654C308.05 279.762 306.152 279.316 303.871 279.316C299.656 279.316 296.109 281.349 293.232 285.415L287.281 281.77C289.315 278.596 291.757 276.205 294.608 274.592C297.461 272.981 300.647 272.174 304.168 272.174C308.086 272.174 311.384 272.93 314.062 274.443C316.741 275.956 318.737 277.952 320.051 280.432C321.365 282.911 322.023 285.614 322.023 288.541C322.023 291.021 321.478 293.414 320.386 295.719C319.295 298.026 317.72 300.382 315.661 302.787C313.603 305.193 310.764 308.18 307.145 311.751L300.151 318.596H324.998ZM350.59 326.332C346.174 326.332 342.407 325.253 339.281 323.096C336.157 320.94 333.788 317.84 332.177 313.798C330.566 309.755 329.759 304.908 329.759 299.252C329.759 293.599 330.566 288.752 332.177 284.709C333.788 280.667 336.157 277.567 339.281 275.41C342.407 273.253 346.174 272.174 350.59 272.174C355.004 272.174 358.773 273.253 361.897 275.41C365.021 277.567 367.39 280.667 369.001 284.709C370.614 288.752 371.419 293.599 371.419 299.252C371.419 304.908 370.614 309.755 369.001 313.798C367.39 317.84 365.021 320.94 361.897 323.096C358.773 325.253 355.004 326.332 350.59 326.332ZM350.59 319.19C354.805 319.19 357.991 317.479 360.15 314.058C362.306 310.635 363.386 305.7 363.386 299.252C363.386 292.756 362.306 287.809 360.15 284.412C357.991 281.014 354.805 279.316 350.59 279.316C346.373 279.316 343.187 281.014 341.03 284.412C338.872 287.809 337.794 292.756 337.794 299.252C337.794 305.7 338.872 310.635 341.03 314.058C343.187 317.479 346.373 319.19 350.59 319.19ZM414.567 318.596V325.44H377.668V321.273L391.654 307.287C395.72 303.221 398.722 299.762 400.656 296.909C402.59 294.058 403.557 291.368 403.557 288.838C403.557 287.153 403.198 285.59 402.477 284.151C401.759 282.713 400.644 281.547 399.131 280.654C397.618 279.762 395.72 279.316 393.439 279.316C389.224 279.316 385.677 281.349 382.8 285.415L376.85 281.77C378.884 278.596 381.325 276.205 384.177 274.592C387.029 272.981 390.215 272.174 393.736 272.174C397.654 272.174 400.953 272.93 403.631 274.443C406.309 275.956 408.305 277.952 409.619 280.432C410.934 282.911 411.592 285.614 411.592 288.541C411.592 291.021 411.046 293.414 409.955 295.719C408.863 298.026 407.288 300.382 405.23 302.787C403.171 305.193 400.333 308.18 396.713 311.751L389.72 318.596H414.567ZM459.501 307.287V313.833H451.762V325.44H444.323V313.833H418.138V309.073L446.109 273.067H451.762V307.287H459.501ZM427.734 307.287H444.323V286.16L427.734 307.287Z" fill="black"/>
</svg>
