<svg width="680" height="154" viewBox="0 0 680 154" fill="none" xmlns="http://www.w3.org/2000/svg">
<path d="M53.4131 121H38.4769C37.5984 121 36.7641 120.615 36.1941 119.947L1.65979 79.4465C0.703494 78.325 0.703494 76.675 1.65979 75.5535L36.1941 35.0535C36.7641 34.385 37.5984 34 38.4769 34H53.4131C55.9866 34 57.3656 37.0277 55.6763 38.9692L23.8641 75.5308C22.8817 76.6598 22.8817 78.3402 23.8641 79.4692L55.6763 116.031C57.3656 117.972 55.9866 121 53.4131 121Z" fill="#9F9F9F"/>
<path d="M93.408 104.744C96.9067 104.744 99.5947 103.72 101.472 101.672C103.349 99.624 104.288 96.7227 104.288 92.968V33.832H123.104V92.712C123.104 98.6 121.995 103.805 119.776 108.328C117.557 112.851 114.229 116.392 109.792 118.952C105.44 121.512 99.9787 122.792 93.408 122.792C86.9227 122.792 81.4613 121.597 77.024 119.208C72.5867 116.819 69.2587 113.405 67.04 108.968C64.8213 104.531 63.712 99.3253 63.712 93.352V88.36H82.528V92.968C82.528 96.8933 83.4667 99.8373 85.344 101.8C87.3067 103.763 89.9947 104.744 93.408 104.744ZM154.603 122.664C150.08 122.664 146.07 121.811 142.571 120.104C139.158 118.312 136.512 115.837 134.635 112.68C132.758 109.523 131.819 105.853 131.819 101.672C131.819 97.2347 132.843 93.48 134.891 90.408C136.939 87.2507 139.67 84.8187 143.083 83.112C146.582 81.4053 150.464 80.552 154.731 80.552C160.96 80.552 165.995 81.96 169.835 84.776C173.675 87.592 176.235 91.6453 177.515 96.936L169.451 95.528V80.936C169.451 78.632 168.64 76.6267 167.019 74.92C165.398 73.2133 162.795 72.36 159.211 72.36C156.907 72.36 154.262 72.6587 151.275 73.256C148.288 73.768 145.216 74.792 142.059 76.328L136.555 63.016C140.31 61.1387 144.32 59.6453 148.587 58.536C152.939 57.4267 157.376 56.872 161.899 56.872C167.702 56.872 172.566 57.896 176.491 59.944C180.416 61.992 183.318 64.8933 185.195 68.648C187.158 72.4027 188.139 76.7547 188.139 81.704V121H172.907L169.195 108.84L177.515 106.28C176.15 111.4 173.547 115.411 169.707 118.312C165.867 121.213 160.832 122.664 154.603 122.664ZM160.363 109.352C163.179 109.352 165.398 108.627 167.019 107.176C168.726 105.725 169.579 103.891 169.579 101.672C169.579 99.2827 168.726 97.4053 167.019 96.04C165.398 94.6747 163.179 93.992 160.363 93.992C157.547 93.992 155.328 94.6747 153.707 96.04C152.086 97.4053 151.275 99.2827 151.275 101.672C151.275 103.891 152.086 105.725 153.707 107.176C155.328 108.627 157.547 109.352 160.363 109.352ZM239.059 56.872C243.24 56.872 246.654 57.5973 249.299 59.048C251.944 60.4133 253.95 62.3333 255.315 64.808C256.766 67.2827 257.704 70.0987 258.131 73.256C258.643 76.328 258.899 79.528 258.899 82.856V121H240.211V83.88C240.211 80.296 239.571 77.9493 238.291 76.84C237.011 75.6453 235.304 75.048 233.171 75.048C231.379 75.048 229.502 75.432 227.539 76.2C225.662 76.8827 223.827 77.864 222.035 79.144C220.243 80.424 218.664 81.8747 217.299 83.496L213.971 74.024H219.219V121H200.531V58.408H214.355L218.195 70.824L211.795 70.312C214.014 67.8373 216.531 65.576 219.347 63.528C222.163 61.48 225.235 59.8587 228.563 58.664C231.891 57.4693 235.39 56.872 239.059 56.872ZM284.209 89.512V87.08L309.809 58.408H330.801L302.385 90.536L301.873 84.392L331.441 121H309.681L284.209 89.512ZM271.281 33.832H289.841V121H271.281V33.832ZM361.965 122.536C355.48 122.536 349.762 121.171 344.813 118.44C339.864 115.624 336.024 111.741 333.293 106.792C330.562 101.843 329.197 96.168 329.197 89.768C329.197 83.2827 330.562 77.5653 333.293 72.616C336.024 67.6667 339.864 63.8267 344.813 61.096C349.762 58.28 355.48 56.872 361.965 56.872C368.536 56.872 374.296 58.28 379.245 61.096C384.194 63.8267 388.034 67.6667 390.765 72.616C393.581 77.5653 394.989 83.2827 394.989 89.768C394.989 96.168 393.581 101.843 390.765 106.792C388.034 111.741 384.194 115.624 379.245 118.44C374.296 121.171 368.536 122.536 361.965 122.536ZM361.965 104.36C366.146 104.36 369.517 103.037 372.077 100.392C374.722 97.6613 376.045 94.12 376.045 89.768C376.045 85.3307 374.722 81.7467 372.077 79.016C369.517 76.2853 366.146 74.92 361.965 74.92C357.954 74.92 354.626 76.2853 351.981 79.016C349.421 81.6613 348.141 85.2027 348.141 89.64C348.141 94.0773 349.421 97.6613 351.981 100.392C354.626 103.037 357.954 104.36 361.965 104.36ZM414.965 121L396.149 58.408H414.453L428.021 106.92H421.109L436.853 58.408H451.445L467.189 106.92H460.405L473.845 58.408H491.509L472.693 121H455.925L441.333 77.992H446.965L432.373 121H414.965ZM519.818 122.92C514.783 122.92 510.047 121.939 505.61 119.976C501.258 118.013 497.29 114.643 493.706 109.864L504.33 99.624C507.231 102.611 510.005 104.744 512.65 106.024C515.295 107.304 518.197 107.944 521.354 107.944C523.231 107.944 524.725 107.56 525.834 106.792C527.029 105.939 527.626 104.915 527.626 103.72C527.626 102.696 527.285 101.843 526.602 101.16C525.919 100.477 524.639 99.7947 522.762 99.112C520.885 98.4293 518.154 97.6187 514.57 96.68C507.999 95.0587 503.093 92.712 499.85 89.64C496.693 86.4827 495.114 82.3013 495.114 77.096C495.114 73.3413 496.095 69.928 498.058 66.856C500.021 63.6987 502.837 61.1813 506.506 59.304C510.175 57.4267 514.527 56.488 519.562 56.488C525.535 56.488 530.613 57.64 534.794 59.944C538.975 62.1627 542.431 64.8933 545.162 68.136L533.642 77.992C531.765 76.2853 529.503 74.8347 526.858 73.64C524.213 72.4453 521.226 71.848 517.898 71.848C516.106 71.848 514.57 72.1893 513.29 72.872C512.01 73.5547 511.37 74.5787 511.37 75.944C511.37 77.224 512.138 78.2907 513.674 79.144C515.21 79.9973 518.282 80.9787 522.89 82.088C530.655 83.9653 536.202 86.4827 539.53 89.64C542.943 92.7973 544.65 97.0213 544.65 102.312C544.65 106.408 543.583 110.035 541.45 113.192C539.317 116.264 536.373 118.653 532.618 120.36C528.863 122.067 524.597 122.92 519.818 122.92ZM567.584 89.512V87.08L593.184 58.408H614.176L585.76 90.536L585.248 84.392L614.816 121H593.056L567.584 89.512ZM554.656 33.832H573.216V121H554.656V33.832ZM637.103 122.664C632.58 122.664 628.57 121.811 625.071 120.104C621.658 118.312 619.012 115.837 617.135 112.68C615.258 109.523 614.319 105.853 614.319 101.672C614.319 97.2347 615.343 93.48 617.391 90.408C619.439 87.2507 622.17 84.8187 625.583 83.112C629.082 81.4053 632.964 80.552 637.231 80.552C643.46 80.552 648.495 81.96 652.335 84.776C656.175 87.592 658.735 91.6453 660.015 96.936L651.951 95.528V80.936C651.951 78.632 651.14 76.6267 649.519 74.92C647.898 73.2133 645.295 72.36 641.711 72.36C639.407 72.36 636.762 72.6587 633.775 73.256C630.788 73.768 627.716 74.792 624.559 76.328L619.055 63.016C622.81 61.1387 626.82 59.6453 631.087 58.536C635.439 57.4267 639.876 56.872 644.399 56.872C650.202 56.872 655.066 57.896 658.991 59.944C662.916 61.992 665.818 64.8933 667.695 68.648C669.658 72.4027 670.639 76.7547 670.639 81.704V121H655.407L651.695 108.84L660.015 106.28C658.65 111.4 656.047 115.411 652.207 118.312C648.367 121.213 643.332 122.664 637.103 122.664ZM642.863 109.352C645.679 109.352 647.898 108.627 649.519 107.176C651.226 105.725 652.079 103.891 652.079 101.672C652.079 99.2827 651.226 97.4053 649.519 96.04C647.898 94.6747 645.679 93.992 642.863 93.992C640.047 93.992 637.828 94.6747 636.207 96.04C634.586 97.4053 633.775 99.2827 633.775 101.672C633.775 103.891 634.586 105.725 636.207 107.176C637.828 108.627 640.047 109.352 642.863 109.352Z" fill="#555555"/>
</svg>
